nColumns=19
nRows=89
DataType=double
version=3
OpenSimVersion=4.1
endheader
time	ground_force_calcn_r_vx	ground_force_calcn_r_vy	ground_force_calcn_r_vz	ground_force_calcn_r_px	ground_force_calcn_r_py	ground_force_calcn_r_pz	ground_force_calcn_r_mx	ground_force_calcn_r_my	ground_force_calcn_r_mz	ground_force_calcn_l_vx	ground_force_calcn_l_vy	ground_force_calcn_l_vz	ground_force_calcn_l_px	ground_force_calcn_l_py	ground_force_calcn_l_pz	ground_force_calcn_l_mx	ground_force_calcn_l_my	ground_force_calcn_l_mz
1.83	0	0	0	0	0	0	0	0	0	0	0	0	0	0	0	0	0	0
1.84	0	0	0	0	0	0	0	0	0	0	0	0	0	0	0	0	0	0
1.85	0	0	0	0	0	0	0	0	0	0	0	0	0	0	0	0	0	0
1.86	0	0	0	0	0	0	0	0	0	0	0	0	0	0	0	0	0	0
1.87	0	0	0	0	0	0	0	0	0	0	0	0	0	0	0	0	0	0
1.88	0	0	0	0	0	0	0	0	0	0	0	0	0	0	0	0	0	0
1.89	0	0	0	0	0	0	0	0	0	0	0	0	0	0	0	0	0	0
1.9	0	0	0	0	0	0	0	0	0	0	0	0	0	0	0	0	0	0
1.91	0	0	0	0	0	0	0	0	0	0	0	0	0	0	0	0	0	0
1.92	0	0	0	0	0	0	0	0	0	0	0	0	0	0	0	0	0	0
1.93	0	0	0	0	0	0	0	0	0	-7.84301	12.574	-3.12314	0.907555	0	-0.56912	-2.46046	3.94464	-0.979771
1.94	0	0	0	0	0	0	0	0	0	-25.227	52.5999	-3.703	0.901978	0	-0.471215	-1.72622	3.59927	-0.253386
1.95	0	0	0	0	0	0	0	0	0	-77.6509	193.992	3.5725	0.910862	0	-0.445114	-0.424072	1.05944	0.0195104
1.96	0	0	0	0	0	0	0	0	0	-173.006	513.945	27.3976	0.913259	0	-0.430057	1.02371	-3.04111	-0.162117
1.97	0	0	0	0	0	0	0	0	0	-258.983	979.878	63.3874	0.899646	0	-0.417175	2.00589	-7.58938	-0.49095
1.98	0	0	0	0	0	0	0	0	0	-291.799	1470.91	84.1626	0.868911	0	-0.407624	2.20012	-11.0904	-0.634572
1.99	0	0	0	0	0	0	0	0	0	-300.266	1874.38	66.4423	0.831263	0	-0.402959	1.99704	-12.4664	-0.441903
2	0	0	0	0	0	0	0	0	0	-289.2	2133.4	26.0951	0.792953	0	-0.401478	1.62193	-11.9649	-0.14635
2.01	0	0	0	0	0	0	0	0	0	-249.012	2288.06	1.11349	0.754238	0	-0.400118	1.16431	-10.6983	-0.00520637
2.02	0	0	0	0	0	0	0	0	0	-179.056	2378.24	5.11387	0.715574	0	-0.398493	0.727285	-9.65987	-0.0207714
2.03	0	0	0	0	0	0	0	0	0	-85.0107	2386.21	19.3042	0.675997	0	-0.398384	0.324185	-9.09972	-0.0736158
2.04	0	0	0	0	0	0	0	0	0	25.2239	2289.77	25.3688	0.633546	0	-0.399872	-0.0945503	-8.58305	-0.0950933
2.05	0	0	0	0	0	0	0	0	0	143.072	2092.44	23.9298	0.588569	0	-0.401029	-0.509101	-7.44562	-0.0851504
2.06	0	0	0	0	0	0	0	0	0	243.742	1807.57	20.0675	0.544179	0	-0.400597	-0.711642	-5.27749	-0.0585902
2.07	0	0	0	0	0	0	0	0	0	300.797	1450.3	11.2673	0.503116	0	-0.399166	-0.462011	-2.22759	-0.0173061
2.08	0	0	0	0	0	0	0	0	0	302.224	1044.97	-3.97657	0.464222	0	-0.398566	0.287464	0.993938	-0.00378237
2.09	0	0	0	0	0	0	0	0	0	255.021	646.698	-18.0739	0.420691	0	-0.400053	1.33882	3.39505	-0.094885
2.1	0	0	0	0	0	0	0	0	0	176.24	333.76	-21.9568	0.373691	0	-0.401215	2.24691	4.25514	-0.27993
2.11	0	0	0	0	0	0	0	0	0	90.7567	145.774	-15.3214	0.37159	0	-0.390261	2.43354	3.90877	-0.410826
2.12	0	0	0	0	0	0	0	0	0	29.4095	54.5675	-6.10839	0.481912	0	-0.349307	1.80166	3.34286	-0.374206
2.13	0	0	0	0	0	0	0	0	0	5.96492	18.4653	-1.69589	0.649447	0	-0.266887	0.829664	2.56835	-0.235882
2.14	0	0	0	0	0	0	0	0	0	0	0	0	0	0	0	0	0	0
2.15	0	0	0	0	0	0	0	0	0	0	0	0	0	0	0	0	0	0
2.16	0	0	0	0	0	0	0	0	0	0	0	0	0	0	0	0	0	0
2.17	0	0	0	0	0	0	0	0	0	0	0	0	0	0	0	0	0	0
2.18	0	0	0	0	0	0	0	0	0	0	0	0	0	0	0	0	0	0
2.19	0	0	0	0	0	0	0	0	0	0	0	0	0	0	0	0	0	0
2.2	0	0	0	0	0	0	0	0	0	0	0	0	0	0	0	0	0	0
2.21	0	0	0	0	0	0	0	0	0	0	0	0	0	0	0	0	0	0
2.22	0	0	0	0	0	0	0	0	0	0	0	0	0	0	0	0	0	0
2.23	-5.47879	12.1003	-3.62003	0.953654	0	-0.236661	-0.116697	0.257732	-0.0771056	0	0	0	0	0	0	0	0	0
2.24	-18.1804	52.1414	-9.80307	0.914269	0	-0.273178	-0.350306	1.00468	-0.188889	0	0	0	0	0	0	0	0	0
2.25	-60.8871	186.972	-19.749	0.923855	0	-0.276486	-0.603872	1.85437	-0.195868	0	0	0	0	0	0	0	0	0
2.26	-134.837	473.639	-30.5498	0.926135	0	-0.278371	-0.654898	2.30045	-0.14838	0	0	0	0	0	0	0	0	0
2.27	-191.456	871.893	-34.5273	0.905952	0	-0.283371	-0.40974	1.86596	-0.0738929	0	0	0	0	0	0	0	0	0
2.28	-201.856	1287.31	-22.9494	0.865942	0	-0.29088	-0.0658626	0.420029	-0.00748801	0	0	0	0	0	0	0	0	0
2.29	-208.336	1647.53	4.46693	0.823932	0	-0.29729	0.183648	-1.4523	-0.00393758	0	0	0	0	0	0	0	0	0
2.3	-222.026	1910.5	31.6511	0.787061	0	-0.300775	0.309766	-2.66549	-0.044159	0	0	0	0	0	0	0	0	0
2.31	-205.107	2094.39	37.2004	0.750041	0	-0.30232	0.225201	-2.29957	-0.0408449	0	0	0	0	0	0	0	0	0
2.32	-141.726	2232.46	18.8244	0.711496	0	-0.302443	0.00786988	-0.123966	-0.0010453	0	0	0	0	0	0	0	0	0
2.33	-61.8584	2317.05	-5.56421	0.674802	0	-0.300809	-0.0864568	3.23844	-0.00777685	0	0	0	0	0	0	0	0	0
2.34	10.7229	2319.38	-22.0115	0.640351	0	-0.298263	0.0306819	6.63655	-0.0629825	0	0	0	0	0	0	0	0	0
2.35	82.2265	2226.25	-29.2957	0.605162	0	-0.296404	0.332279	8.99632	-0.118385	0	0	0	0	0	0	0	0	0
2.36	153.077	2041.67	-26.8122	0.567778	0	-0.295427	0.730511	9.74322	-0.127953	0	0	0	0	0	0	0	0	0
2.37	222.94	1770.68	-13.6682	0.527297	0	-0.294333	1.12576	8.94123	-0.0690189	0	0	0	0	0	0	0	0	0
2.38	282.581	1423.01	2.22024	0.483382	0	-0.292744	1.42077	7.15465	0.011163	0	0	0	0	0	0	0	0	0
2.39	298.68	1036.23	9.78676	0.438931	0	-0.290908	1.48387	5.14809	0.0486215	0	0	0	0	0	0	0	0	0
2.4	254.685	664.985	7.66787	0.393034	0	-0.289272	1.33685	3.49053	0.040249	0	0	0	0	0	0	0	0	0
2.41	172.054	365.698	3.27868	0.349056	0	-0.286696	1.10734	2.35363	0.0211016	0	0	0	0	0	0	0	0	0
2.42	84.8914	170.999	2.3171	0.348397	0	-0.278221	0.844809	1.70172	0.0230589	0	0	0	0	0	0	0	0	0
2.43	25.3525	65.7476	3.67631	0.428821	0	-0.253514	0.541068	1.40317	0.0784592	0	0	0	0	0	0	0	0	0
2.44	2.05074	20.1933	3.53997	0.630997	0	-0.194087	0.121754	1.19889	0.210171	0	0	0	0	0	0	0	0	0
2.45	0	0	0	0	0	0	0	0	0	0	0	0	0	0	0	0	0	0
2.46	0	0	0	0	0	0	0	0	0	0	0	0	0	0	0	0	0	0
2.47	0	0	0	0	0	0	0	0	0	0	0	0	0	0	0	0	0	0
2.48	0	0	0	0	0	0	0	0	0	0	0	0	0	0	0	0	0	0
2.49	0	0	0	0	0	0	0	0	0	0	0	0	0	0	0	0	0	0
2.5	0	0	0	0	0	0	0	0	0	0	0	0	0	0	0	0	0	0
2.51	0	0	0	0	0	0	0	0	0	0	0	0	0	0	0	0	0	0
2.52	0	0	0	0	0	0	0	0	0	0	0	0	0	0	0	0	0	0
2.53	0	0	0	0	0	0	0	0	0	0	0	0	0	0	0	0	0	0
2.54	0	0	0	0	0	0	0	0	0	0	0	0	0	0	0	0	0	0
2.55	0	0	0	0	0	0	0	0	0	-8.70632	13.5381	-2.18502	0.998362	0	-0.545336	-3.09499	4.81262	-0.776748
2.56	0	0	0	0	0	0	0	0	0	-24.9029	51.6012	-2.26811	0.916049	0	-0.463762	-2.36051	4.89121	-0.214991
2.57	0	0	0	0	0	0	0	0	0	-71.7782	187.069	5.56378	0.897008	0	-0.438983	-0.977111	2.54656	0.0757393
2.58	0	0	0	0	0	0	0	0	0	-155.3	492.148	30.1703	0.896539	0	-0.424123	0.564503	-1.78892	-0.109666
2.59	0	0	0	0	0	0	0	0	0	-227.69	930.289	67.5705	0.882806	0	-0.41091	1.68717	-6.89339	-0.500694
2.6	0	0	0	0	0	0	0	0	0	-261.054	1387.37	90.3711	0.852195	0	-0.400838	2.08774	-11.0953	-0.722731
2.61	0	0	0	0	0	0	0	0	0	-283.964	1782.11	74.1109	0.814526	0	-0.395358	2.08899	-13.1101	-0.545198
2.62	0	0	0	0	0	0	0	0	0	-282.546	2083.04	32.7018	0.775769	0	-0.392398	1.75993	-12.9749	-0.203694
2.63	0	0	0	0	0	0	0	0	0	-239.738	2307.05	3.02609	0.736712	0	-0.389436	1.21355	-11.6783	-0.0153181
2.64	0	0	0	0	0	0	0	0	0	-165.669	2456.66	0.439068	0.698781	0	-0.386822	0.693398	-10.2822	-0.00183769
2.65	0	0	0	0	0	0	0	0	0	-77.4059	2501.38	10.1947	0.661756	0	-0.386142	0.286872	-9.27028	-0.0377825
2.66	0	0	0	0	0	0	0	0	0	10.3215	2425.76	16.2027	0.624208	0	-0.387047	-0.0359294	-8.44412	-0.0564019
2.67	0	0	0	0	0	0	0	0	0	101.899	2240.29	17.2762	0.584434	0	-0.387666	-0.33013	-7.25806	-0.0559712
2.68	0	0	0	0	0	0	0	0	0	202.982	1958.53	15.7642	0.540786	0	-0.387135	-0.544903	-5.25766	-0.0423188
2.69	0	0	0	0	0	0	0	0	0	285.549	1601.17	9.3604	0.495541	0	-0.38619	-0.437533	-2.4534	-0.0143425
2.7	0	0	0	0	0	0	0	0	0	309.656	1199.09	-1.15308	0.452541	0	-0.386193	0.146883	0.56878	-0.000546956
2.71	0	0	0	0	0	0	0	0	0	273.774	794.369	-8.69581	0.409986	0	-0.387378	1.02595	2.97686	-0.0325871
